<svg version="1.1" xmlns="http://www.w3.org/2000/svg" viewBox="0 0 917.85546875 306.0703125" width="917.85546875" height="306.0703125">
  <!-- svg-source:excalidraw -->
  
  <defs>
    <style>
      @font-face {
        font-family: "Virgil";
        src: url("https://excalidraw.com/Virgil.woff2");
      }
      @font-face {
        font-family: "Cascadia";
        src: url("https://excalidraw.com/Cascadia.woff2");
      }
    </style>
  </defs>
  <rect x="0" y="0" width="917.85546875" height="306.0703125" fill="#ffffff"></rect><g stroke-linecap="round" transform="translate(10 11.6953125) rotate(0 44.49209103509162 39.091796875)"><path d="M-0.15 0.91 C30.89 -1.12, 61.78 1.51, 87.78 1.21 M-0.81 -0.01 C32.05 0.67, 64.95 0.47, 88.3 0.25 M87.61 1.72 C89.09 23.03, 88.02 48.05, 87.79 79.22 M88.74 -0.3 C88.63 30.55, 89.68 61.42, 89 78.46 M89.6 78.81 C61.98 76.68, 33.98 79.08, 1.48 78.57 M88.12 78.91 C66.66 77.72, 45.76 77.57, 0.08 78.58 M0.07 77.01 C-0.13 58.39, -2.11 34.84, -0.29 1.01 M-0.61 78.3 C-0.42 47.13, 0.67 16.48, 0.87 0.52" stroke="#000000" stroke-width="1" fill="none"></path></g><g transform="translate(22.492091035091562 39.287109375) rotate(0 32 11.5)"><text x="32" y="17" font-family="Cascadia, Segoe UI Emoji" font-size="16px" fill="#000000" text-anchor="middle" style="white-space: pre;" direction="ltr">一级业务</text></g><g stroke-linecap="round" transform="translate(114.01953125 11.0390625) rotate(0 38.005859375 38.005859375)"><path d="M0.8 1.97 C28.74 0.61, 57.17 -0.17, 77.25 0.48 M-0.24 0.21 C15.45 0.31, 32.66 0.76, 75.67 0.84 M75.91 1.34 C76.89 20.42, 77.51 43.64, 75.28 75.9 M76.47 0.08 C76.51 26.89, 75.96 54.31, 76.58 76.69 M77.57 75.92 C59.18 77.2, 40.73 77.55, -0.43 77.84 M76.63 76.55 C52.4 75.84, 29.21 77.23, -0.24 75.14 M-0.94 75.98 C0.64 58.37, -1.19 40.72, -0.25 0.6 M-0.45 76.79 C0.46 45.59, 0.02 17.02, 1 -1" stroke="#000000" stroke-width="1" fill="none"></path></g><g transform="translate(120.025390625 37.544921875) rotate(0 32 11.5)"><text x="32" y="17" font-family="Cascadia, Segoe UI Emoji" font-size="16px" fill="#000000" text-anchor="middle" style="white-space: pre;" direction="ltr">二级业务</text></g><g stroke-linecap="round" transform="translate(203.7578125 10) rotate(0 39.64453125 39.64453125)"><path d="M1.08 0.11 C26.15 0.57, 56.4 -0.96, 77.55 -1.49 M-0.02 0.1 C18.95 -0.44, 37.9 0.25, 79.59 0.94 M80.85 -0.44 C78.75 15.41, 81.49 35.45, 77.29 78.45 M78.56 -0.55 C79.13 27.9, 78.64 57.34, 79.92 80.01 M79.07 79.59 C51.59 79.7, 24.48 79.28, 0.91 80.86 M79.76 78.38 C54.31 79.84, 30.12 78.9, -0.37 79.72 M-0.96 77.75 C0.31 58.83, 0.64 36.45, 1.42 -0.89 M0.18 79.28 C0.21 51.24, -0.05 24.34, 0.97 0.04" stroke="#000000" stroke-width="1" fill="none"></path></g><g transform="translate(209.609375 40.01171875) rotate(0 32 11.5)"><text x="32" y="17" font-family="Cascadia, Segoe UI Emoji" font-size="16px" fill="#000000" text-anchor="middle" style="white-space: pre;" direction="ltr">三级业务</text></g><g stroke-linecap="round" transform="translate(206.703125 144.28515625) rotate(0 33.73046875 33.73046875)"><path d="M-0.89 0.96 C21.94 -0.59, 42.54 -0.5, 68.56 -0.92 M0.04 -0.12 C22.11 -0.81, 43.96 -0.6, 67.56 -0.06 M66.62 -1.13 C67.23 15.63, 66.79 29.36, 67.7 67.04 M66.7 -0.24 C68.36 24.23, 66.76 49.52, 66.73 67.55 M66.19 67.83 C39.71 66.53, 16.39 65.75, -0.9 67.26 M66.59 67.5 C47.16 68.71, 27 67.82, -0.27 67.63 M1.99 66.18 C1.67 52.29, 1.36 35.25, 1.86 -1.86 M1 67.56 C0.46 45.83, -0.35 22.34, 0.36 -0.9" stroke="#000000" stroke-width="1" fill="none"></path></g><g transform="translate(225.671875 165.60546875) rotate(0 16 11.5)"><text x="16" y="17" font-family="Cascadia, Segoe UI Emoji" font-size="16px" fill="#000000" text-anchor="middle" style="white-space: pre;" direction="ltr">模块</text></g><g stroke-linecap="round" transform="translate(386.57421875 123.05078125) rotate(0 31.248046875 31.248046875)"><path d="M1.85 1.71 C19.4 -0.3, 34.65 1.32, 63.38 -0.97 M0.87 -0.36 C18.75 -1.13, 37.38 0.25, 62.34 -0.98 M64.09 -0.12 C60.81 18.36, 64.1 32.37, 63.26 64.31 M63.19 0.94 C63.22 17.41, 61.69 34.84, 63.19 61.85 M61.57 60.97 C44.83 62.96, 26.72 61.75, 1.78 61.6 M61.96 61.77 C40.87 61.98, 20.11 61.7, 0.36 63.46 M-1.09 63.9 C1.17 40.12, -0.46 14.32, 0.24 1.43 M-0.55 63.4 C-0.25 49.78, 0.42 36.01, 0.91 -0.59" stroke="#000000" stroke-width="1" fill="none"></path></g><g transform="translate(408.322265625 144.298828125) rotate(0 9.5 10)"><text x="9.5" y="16" font-family="Cascadia, Segoe UI Emoji" font-size="16px" fill="#000000" text-anchor="middle" style="white-space: pre;" direction="ltr">CI</text></g><g stroke-linecap="round" transform="translate(385.625 226.1328125) rotate(0 32.4453125 32.4453125)"><path d="M1.5 1.7 C18.77 0.97, 38.7 0.92, 66.71 -1.35 M0.21 -0.64 C17.52 -0.13, 36.87 0.72, 64.08 -0.88 M62.91 -0.98 C65.46 22.61, 65.9 44.88, 62.98 65.5 M65.5 0.45 C65.15 20.9, 65.22 43.96, 64.07 63.93 M65.82 64.39 C41.64 64.15, 17.03 65.01, 0.4 64.97 M65.39 64.21 C49.52 64.68, 32.13 64.09, -0.43 65.33 M0.91 65.13 C-1.19 48.88, -2.01 34.23, -1.03 1.97 M-0.56 64.98 C0.14 50.64, -0.52 37.22, -0.71 0.62" stroke="#000000" stroke-width="1" fill="none"></path></g><g transform="translate(408.5703125 248.578125) rotate(0 9.5 10)"><text x="9.5" y="16" font-family="Cascadia, Segoe UI Emoji" font-size="16px" fill="#000000" text-anchor="middle" style="white-space: pre;" direction="ltr">CD</text></g><g stroke-linecap="round"><g transform="translate(237.6796875 128.79296875) rotate(0 0.9656062122434719 -15.852606922015553)"><path d="M-0.27 0.24 C0.23 -5.04, 1.83 -26.69, 2.2 -31.95 M1.79 -0.68 C2.2 -5.78, 1.39 -25.85, 1.28 -30.74" stroke="#000000" stroke-width="1" fill="none"></path></g><g transform="translate(237.6796875 128.79296875) rotate(0 0.9656062122434719 -15.852606922015553)"><path d="M7.41 -16.1 C4.94 -19.82, 4.4 -22.22, 0.22 -29.66 M6.76 -15.82 C5.02 -20.15, 3.44 -23.99, 1.37 -31.17" stroke="#000000" stroke-width="1" fill="none"></path></g><g transform="translate(237.6796875 128.79296875) rotate(0 0.9656062122434719 -15.852606922015553)"><path d="M-3.32 -15.77 C-3.27 -19.55, -1.3 -22.02, 0.22 -29.66 M-3.97 -15.49 C-2.71 -19.83, -1.3 -23.76, 1.37 -31.17" stroke="#000000" stroke-width="1" fill="none"></path></g></g><g stroke-linecap="round"><g transform="translate(364.02734375 160.1171875) rotate(0 -37.80016885341149 1.4904849308035466)"><path d="M-1.11 -0.64 C-13.74 -0.1, -63.8 1.54, -76.11 2.07 M0.51 1.64 C-11.74 2.48, -61.27 3.81, -73.99 3.6" stroke="#000000" stroke-width="1" fill="none"></path></g><g transform="translate(364.02734375 160.1171875) rotate(0 -37.80016885341149 1.4904849308035466)"><path d="M-46.96 -8.76 C-53.69 -4.28, -60.67 -2.07, -75.33 1.62 M-46.54 -7.13 C-51.95 -4.3, -60.14 -0.78, -73.14 3.65" stroke="#000000" stroke-width="1" fill="none"></path></g><g transform="translate(364.02734375 160.1171875) rotate(0 -37.80016885341149 1.4904849308035466)"><path d="M-46.77 11.76 C-53.36 10.61, -60.39 7.19, -75.33 1.62 M-46.36 13.39 C-51.98 11, -60.22 9.3, -73.14 3.65" stroke="#000000" stroke-width="1" fill="none"></path></g></g><g stroke-linecap="round"><g transform="translate(366.80859375 250.8125) rotate(0 -34.38818944291211 -28.849270041873666)"><path d="M-0.7 1.03 C-12.52 -8.52, -58.61 -47.12, -69.92 -56.95 M1.14 0.53 C-10.43 -9.41, -56.11 -49.17, -67.83 -58.73" stroke="#000000" stroke-width="1" fill="none"></path></g><g transform="translate(366.80859375 250.8125) rotate(0 -34.38818944291211 -28.849270041873666)"><path d="M-37.96 -50.32 C-49.55 -52.17, -62.12 -54.57, -67.4 -59.29 M-39.76 -47.77 C-45.27 -50.04, -51.64 -53.69, -67.81 -59.45" stroke="#000000" stroke-width="1" fill="none"></path></g><g transform="translate(366.80859375 250.8125) rotate(0 -34.38818944291211 -28.849270041873666)"><path d="M-51.22 -34.66 C-57.72 -42.5, -65.15 -50.97, -67.4 -59.29 M-53.02 -32.1 C-55.61 -37.95, -58.98 -45.14, -67.81 -59.45" stroke="#000000" stroke-width="1" fill="none"></path></g></g><g stroke-linecap="round" transform="translate(579.359375 226.37109375) rotate(0 34.849609375 34.849609375)"><path d="M0.16 -0.56 C15.15 -0.39, 31.55 -1.46, 67.92 1.26 M0.49 0.78 C16.15 -0.37, 32.35 -1.15, 68.77 0.17 M69.33 -1.69 C67.15 14.38, 67.31 31.74, 69.09 69 M70.46 0.96 C69.31 23.11, 69.94 47.31, 69.18 69.26 M67.81 68.54 C44.29 67.59, 19.43 71.36, 1.62 70.65 M68.98 69.66 C45.6 69.76, 23.67 71.22, 0.45 70.06 M0.63 68.74 C-1.89 50.93, 0.72 35.56, -1.35 1.81 M-0.09 68.96 C-1.25 45.77, -1.1 20.68, -0.91 -0.18" stroke="#000000" stroke-width="1" fill="none"></path></g><g transform="translate(590.451171875 250.759765625) rotate(0 24 11.5)"><text x="24" y="17" font-family="Cascadia, Segoe UI Emoji" font-size="16px" fill="#000000" text-anchor="middle" style="white-space: pre;" direction="ltr">服务器</text></g><g transform="translate(490.73046875 228.015625) rotate(0 16 11.5)"><text x="0" y="17" font-family="Cascadia, Segoe UI Emoji" font-size="16px" fill="#000000" text-anchor="start" style="white-space: pre;" direction="ltr">部署</text></g><g stroke-linecap="round"><g transform="translate(474.9921875 262.9453125) rotate(0 40.62827230654659 -1.46280319057405)"><path d="M-0.28 0.28 C13.27 -0.33, 67.94 -2.53, 81.54 -3.2 M1.77 -0.62 C15.21 -1.09, 67.85 -1.42, 81.03 -1.79" stroke="#000000" stroke-width="1" fill="none"></path></g><g transform="translate(474.9921875 262.9453125) rotate(0 40.62827230654659 -1.46280319057405)"><path d="M53.47 10.33 C61.56 6.59, 69.64 0.63, 82.66 -1.13 M53.12 8.84 C62.81 4.85, 72.23 1.6, 80.24 -1.76" stroke="#000000" stroke-width="1" fill="none"></path></g><g transform="translate(474.9921875 262.9453125) rotate(0 40.62827230654659 -1.46280319057405)"><path d="M53.14 -10.19 C61.41 -7.34, 69.6 -6.72, 82.66 -1.13 M52.79 -11.67 C62.68 -8.57, 72.2 -4.71, 80.24 -1.76" stroke="#000000" stroke-width="1" fill="none"></path></g></g><g stroke-linecap="round" transform="translate(709.28125 117.3515625) rotate(0 37.64453125 37.64453125)"><path d="M-1.11 0.09 C24.45 2.05, 51.53 -1.25, 76.21 1.31 M-0.79 -0.04 C27.32 0.66, 55.16 -0.43, 74.92 0.7 M73.83 -0.49 C76.08 20.59, 75.67 42.86, 76.33 76.39 M75.4 0.81 C75.79 15.21, 75.95 30.11, 74.35 74.72 M75.82 74.02 C50.68 75.5, 27.73 76.07, 0.4 74.98 M74.94 76.28 C47.87 76.28, 19.6 75.85, -0.53 76.27 M-0.93 73.32 C-0.25 48.28, 0.04 24.91, 1.81 -0.11 M0.43 74.79 C-0.69 47.87, 0.57 20.41, -0.27 0.21" stroke="#000000" stroke-width="1" fill="none"></path></g><g transform="translate(715.1484375 144.0859375) rotate(0 32 11.5)"><text x="32" y="17" font-family="Cascadia, Segoe UI Emoji" font-size="16px" fill="#000000" text-anchor="middle" style="white-space: pre;" direction="ltr">网络策略</text></g><g stroke-linecap="round" transform="translate(714.5625 229.1953125) rotate(0 34.900390625 32.328125)"><path d="M1.17 -0.06 C25.71 0.14, 48.24 0.67, 70.73 1.97 M0.29 0.8 C19.06 0.88, 36.4 0.04, 70.41 0.87 M70.94 1.34 C70.66 15.4, 72.07 29.47, 70.46 63.98 M69.53 -0.2 C70.83 19.66, 70.07 40.24, 69.3 64.12 M69.92 63.27 C57.15 64, 40.87 64.55, -1.26 65.75 M69.44 64.63 C45.35 65.02, 20.1 64.01, -0.75 64.15 M-0.71 65.93 C0.5 39.48, 1.75 16.58, 0.62 -0.15 M-0.85 64.04 C0.01 40.53, 1.2 17.1, -0.03 0.64" stroke="#000000" stroke-width="1" fill="none"></path></g><g transform="translate(733.462890625 250.0234375) rotate(0 16 11.5)"><text x="16" y="17" font-family="Cascadia, Segoe UI Emoji" font-size="16px" fill="#000000" text-anchor="middle" style="white-space: pre;" direction="ltr">域名</text></g><g stroke-linecap="round" transform="translate(843.1328125 230.56640625) rotate(0 32.361328125 32.361328125)"><path d="M1.1 1.05 C15.55 -0.19, 33.96 0.35, 65.01 1.14 M-0.51 0.61 C16.08 0.61, 31.74 1.13, 64.98 -0.93 M64.57 1.47 C62.85 25.99, 62.55 49.06, 63.83 64.73 M65.36 -0.68 C64.44 24.83, 64.25 47.56, 63.95 65.17 M66.22 65.09 C45 65.7, 22.55 62.87, -0.9 64.5 M64.84 64.82 C47.71 64.36, 30.58 65.2, -0.86 64.91 M-1.17 64.44 C2.3 48.6, 0.62 31, -1.16 1.82 M-0.54 65.07 C-1.03 48.79, -1.05 35.13, 0.25 0.17" stroke="#000000" stroke-width="1" fill="none"></path></g><g transform="translate(860.119140625 252.052734375) rotate(0 16 11.5)"><text x="16" y="17" font-family="Cascadia, Segoe UI Emoji" font-size="16px" fill="#000000" text-anchor="middle" style="white-space: pre;" direction="ltr">证书</text></g><g stroke-linecap="round"><g transform="translate(697.08203125 257.53515625) rotate(0 -18.241486406698755 0.5100817218987572)"><path d="M0.42 -0.68 C-5.84 -0.5, -30.97 0.05, -36.91 0.4 M-0.82 1.58 C-6.77 1.95, -28.92 1.35, -34.72 1.57" stroke="#000000" stroke-width="1" fill="none"></path></g><g transform="translate(697.08203125 257.53515625) rotate(0 -18.241486406698755 0.5100817218987572)"><path d="M-18.87 -6.12 C-24.96 -1.28, -29.47 0.15, -35.46 0.1 M-18.04 -4.64 C-22.43 -3.2, -26.41 -1.03, -35.44 1.7" stroke="#000000" stroke-width="1" fill="none"></path></g><g transform="translate(697.08203125 257.53515625) rotate(0 -18.241486406698755 0.5100817218987572)"><path d="M-18.84 6.17 C-24.88 6.62, -29.39 3.67, -35.46 0.1 M-18.01 7.64 C-22.35 6.07, -26.34 5.24, -35.44 1.7" stroke="#000000" stroke-width="1" fill="none"></path></g></g><g stroke-linecap="round"><g transform="translate(685.93359375 162.08203125) rotate(0 -14.765156119298126 24.142750548608603)"><path d="M0.91 0.17 C-3.82 8.09, -24.45 39.71, -29.39 47.68 M-0.06 -0.79 C-4.89 7.3, -25.58 40.72, -30.45 49.07" stroke="#000000" stroke-width="1" fill="none"></path></g><g transform="translate(685.93359375 162.08203125) rotate(0 -14.765156119298126 24.142750548608603)"><path d="M-24.76 21.19 C-26.65 28.4, -27.31 33.24, -29.91 50.23 M-24.12 22.16 C-26.36 28.58, -28.6 37.39, -30.42 48.33" stroke="#000000" stroke-width="1" fill="none"></path></g><g transform="translate(685.93359375 162.08203125) rotate(0 -14.765156119298126 24.142750548608603)"><path d="M-8.32 31.11 C-13.84 36.26, -18.11 38.92, -29.91 50.23 M-7.68 32.07 C-14.4 35.83, -21.2 41.9, -30.42 48.33" stroke="#000000" stroke-width="1" fill="none"></path></g></g><g stroke-linecap="round"><g transform="translate(824.37109375 262.62890625) rotate(0 -15.353517915168823 0.08533843073462322)"><path d="M0.56 1.06 C-4.45 1.1, -25.19 1.18, -30.59 1.07 M-0.61 0.57 C-5.69 0.16, -25.88 -1.09, -31.26 -0.95" stroke="#000000" stroke-width="1" fill="none"></path></g><g transform="translate(824.37109375 262.62890625) rotate(0 -15.353517915168823 0.08533843073462322)"><path d="M-15.15 -5.26 C-20.02 -5.48, -24.72 -4.65, -30.49 -1.51 M-16.37 -5.38 C-21.53 -4.62, -27.36 -1.74, -30.98 -0.84" stroke="#000000" stroke-width="1" fill="none"></path></g><g transform="translate(824.37109375 262.62890625) rotate(0 -15.353517915168823 0.08533843073462322)"><path d="M-15.4 5.38 C-20.28 2.42, -24.92 0.52, -30.49 -1.51 M-16.63 5.26 C-21.6 2.31, -27.34 1.49, -30.98 -0.84" stroke="#000000" stroke-width="1" fill="none"></path></g></g></svg>